HIERARCHY
ROOT Hips
{
  OFFSET -282.529 88.4099 -277.992
  CHANNELS 6 Xposition Yposition Zposition Zrotation Xrotation Yrotation
  JOINT ToSpine
  {
    OFFSET -0.0105055 1.38907 -7.13956
    CHANNELS 3 Zrotation Xrotation Yrotation
    JOINT Spine
    {
      OFFSET 0.0105055 10 1
      CHANNELS 3 Zrotation Xrotation Yrotation
      JOINT Spine1
      {
        OFFSET 0 12 1.60637
        CHANNELS 3 Zrotation Xrotation Yrotation
        JOINT Neck
        {
          OFFSET 0 27 2.26658
          CHANNELS 3 Zrotation Xrotation Yrotation
          JOINT Head
          {
            OFFSET 0 9 2.12705
            CHANNELS 3 Zrotation Xrotation Yrotation
            End Site
            {
              OFFSET 0 11 2
            }
          }
        }
        JOINT LeftShoulder
        {
          OFFSET 8 19.6109 2.86452
          CHANNELS 3 Zrotation Xrotation Yrotation
          JOINT LeftArm
          {
            OFFSET 12 1 0.681055
            CHANNELS 3 Zrotation Xrotation Yrotation
            JOINT LeftForeArm
            {
              OFFSET 19 0 -1.52608
              CHANNELS 3 Zrotation Xrotation Yrotation
              JOINT LeftHand
              {
                OFFSET 23 0 0
                CHANNELS 3 Zrotation Xrotation Yrotation
                End Site
                {
                  OFFSET 10 0 0
                }
              }
            }
          }
        }
        JOINT RightShoulder
        {
          OFFSET -8 19.6109 2.86452
          CHANNELS 3 Zrotation Xrotation Yrotation
          JOINT RightArm
          {
            OFFSET -12 1 0.681055
            CHANNELS 3 Zrotation Xrotation Yrotation
            JOINT RightForeArm
            {
              OFFSET -19 0 -1.52608
              CHANNELS 3 Zrotation Xrotation Yrotation
              JOINT RightHand
              {
                OFFSET -23 0 0
                CHANNELS 3 Zrotation Xrotation Yrotation
                End Site
                {
                  OFFSET -10 0 0
                }
              }
            }
          }
        }
      }
    }
  }
  JOINT LeftUpLeg
  {
    OFFSET 9 -7.17245 0
    CHANNELS 3 Zrotation Xrotation Yrotation
    JOINT LeftLeg
    {
      OFFSET 0 -44.1113 0
      CHANNELS 3 Zrotation Xrotation Yrotation
      JOINT LeftFoot
      {
        OFFSET 0 -36.1829 0
        CHANNELS 3 Zrotation Xrotation Yrotation
        JOINT LeftToeBase
        {
          OFFSET 0 -4.84184 13
          CHANNELS 3 Zrotation Xrotation Yrotation
          End Site
          {
            OFFSET 0 1 6
          }
        }
      }
    }
  }
  JOINT RightUpLeg
  {
    OFFSET -9 -7.17245 0
    CHANNELS 3 Zrotation Xrotation Yrotation
    JOINT RightLeg
    {
      OFFSET 0 -44.0551 0
      CHANNELS 3 Zrotation Xrotation Yrotation
      JOINT RightFoot
      {
        OFFSET 0 -36.1469 0
        CHANNELS 3 Zrotation Xrotation Yrotation
        JOINT RightToeBase
        {
          OFFSET 0 -4.92256 13
          CHANNELS 3 Zrotation Xrotation Yrotation
          End Site
          {
            OFFSET 0 1 6
          }
        }
      }
    }
  }
}
MOTION
Frames:	8
Frame Time:	0.0333333
-8.49008 91.3354 -9.39137 -7.74451 2.97135 -133.526 0 0 0 0.192154 9.82586 2.94926 -5.46536 3.35557 3.83898 1.38841 1.09117 33.9896 -8.36539 0.806425 35.6366 -27.76 3.26222 -6.11129 -34.3232 19.8695 14.1603 20.0294 -8.41847 -111.88 -17.2257 0.418779 -2.76199 23.5532 4.75129 12.3327 41.9715 -9.16532 -4.10923 -8.16387 -4.61584 119.291 5.52941 0.194221 4.10463 -0.626504 -15.0453 5.69053 -0.0405838 52.5853 -12.1039 15.1653 -24.0564 3.24048 1.09118 -10.0737 -2.69333 -9.95834 -28.8764 -7.21151 -179.359 86.9372 170.797 -27.163 -14.1368 -3.44045 3.28559 -11.8962 -5.15264 
-2.45967 93.2294 -3.44241 -8.25482 4.69865 -133.495 0 0 0 4.9902 8.41015 5.37773 -8.68406 6.09173 7.51233 0.0740466 5.6782 32.7846 -9.16523 -1.22278 34.5798 -26.7778 2.92355 -5.36379 -37.9246 17.8337 30.3299 17.5472 -9.06681 -116.49 -16.5762 0.614626 -4.2238 20.4831 4.53197 13.2216 39.4121 -11.0769 0.826858 -7.52258 -4.32549 119.733 5.10242 0.204857 4.58354 -0.294609 -16.8017 5.15465 0.0999579 45.2971 -12.292 12.4847 -13.8863 1.49792 0.937123 -8.58411 -2.20112 -7.96723 -14.5667 -7.45219 176.669 86.8824 175.93 -27.9969 -8.76505 -2.25782 3.29495 -12.0384 -4.96347 
3.56871 96.0672 2.20018 -9.48084 6.27437 -133.635 0 0 0 10.0604 7.92399 7.90365 -13.1233 7.54738 11.5878 -0.719253 12.299 31.3361 -9.03392 -2.37528 33.3047 -23.6766 2.44262 -4.62331 -38.9017 17.735 41.9436 14.3695 -8.92277 -121.192 -16.6115 0.807742 -5.53525 15.9281 4.00171 14.0268 38.5882 -10.5165 3.31576 -6.58669 -3.79083 119.794 3.8708 0.151659 4.47398 -0.256311 -13.7772 5.10707 -0.709223 28.7462 -12.3064 8.94365 5.7728 -0.390665 1.19662 -12.477 -2.68336 -6.12807 1.10507 -7.42 -2.09798 81.9158 4.75158 -37.1849 4.14985 1.50281 4.96758 -20.0976 -8.59798 
10.0467 97.6755 7.8898 -8.6755 5.57261 -132.159 0 0 0 14.3898 5.25505 9.25832 -17.8272 8.89883 14.2574 -0.0860746 13.8168 30.4517 -8.32302 -0.475422 32.6008 -19.1846 2.25747 -5.26042 -38.9342 16.4497 49.9397 13.0229 -8.94865 -123.922 -17.9183 1.15499 -7.29689 10.6195 2.95717 12.8786 38.3105 -8.13129 7.12916 -6.55884 -3.72015 119.437 2.95616 0.117214 4.58081 0.177635 -13.4502 3.33404 -1.90177 12.0131 -17.9331 6.90919 18.5326 -1.13043 1.00888 -13.1922 -1.10393 -3.32697 10.0257 -5.51562 -0.00100295 69.6131 7.22947 -22.6522 1.45867 0.507006 3.48647 -12.4158 -3.12044 
17.8606 97.3224 14.5121 -5.52456 1.91201 -130.407 0 0 0 16.1373 0.159747 9.58518 -21.7704 11.6312 15.1545 -0.929805 7.04206 31.9107 -6.31684 1.99104 32.9596 -15.5324 2.55978 -7.94209 -41.2861 12.5199 52.899 14.99 -10.3571 -123.878 -17.0266 1.15821 -7.72343 6.23639 2.10763 11.4927 36.3742 -6.59755 11.7591 -2.44465 -1.41424 120.032 3.40688 0.193041 6.39987 0.00822807 -23.6106 1.67388 -2.48348 15.8426 -23.1058 6.3979 12.8428 -0.739115 0.057293 -6.80994 2.26906 -0.690426 9.8191 -4.64959 0.0956861 59.8818 5.61613 -23.6921 -2.06997 -0.471926 4.16428 -15.5637 -3.40133 
26.1013 96.2091 21.5511 -3.21289 -0.189806 -128.481 0 0 0 16.2537 0.853325 8.49694 -22.3732 8.74962 13.7296 -3.30335 3.29968 34.2019 -5.36848 2.00747 33.9882 -17.3141 2.60467 -7.34151 -38.7143 14.2448 44.7489 14.1515 -9.27092 -122.576 -17.4713 0.956323 -6.25897 7.23365 2.26062 11.6372 32.9294 -5.37375 9.43608 -0.303734 -0.188968 121.888 3.32028 0.249345 8.6724 -0.0266694 -32.7988 4.7582 -0.591351 30.5858 -23.3734 8.76059 4.48743 -0.361185 0.545421 -8.66037 0.272023 1.17975 6.9242 -3.58711 -0.0160823 52.6628 4.09257 -28.8565 -4.59527 -1.18822 4.32997 -16.4525 -3.93259 
34.292 94.4218 28.9732 -3.9656 -1.1256 -127.842 0 0 0 15.3055 4.80175 6.30733 -22.6949 5.59161 11.6639 -4.22681 1.0751 36.5769 -5.10391 3.28498 35.8845 -20.4892 2.63479 -6.26772 -35.1741 15.1099 31.6279 11.9198 -6.71532 -118.984 -15.0698 0.564343 -4.20385 11.0394 2.88263 12.1734 32.9767 -3.25965 4.69834 -3.86675 -2.43972 122.203 2.38637 0.154407 7.25079 -0.100351 -37.0838 7.08347 0.255138 50.727 -17.4221 13.5898 -7.73256 0.992327 0.612225 -8.69879 -0.228317 0.359473 4.55438 -1.29919 0.0339157 47.1603 1.73182 -31.6198 -4.52864 -1.37566 7.36874 -28.9045 -4.81571 
42.7878 92.4568 36.5439 -5.61665 -2.79915 -128.778 0 0 0 11.7325 9.02014 4.41022 -20.8829 1.91823 9.05037 -7.56465 0.55551 39.2599 -4.22709 1.64986 37.4059 -26.3608 3.26615 -6.46613 -31.0033 12.0625 20.9848 9.80572 -4.88488 -116.229 -14.6082 0.450925 -3.51528 13.417 3.21578 12.1569 35.0035 -0.848591 -1.43425 -3.8859 -2.1523 118.938 2.24999 0.152668 7.46005 0.294344 -38.3378 9.95845 0.491076 70.2537 -10.5957 13.6245 -16.2308 1.92686 0.932441 -7.50293 -2.46643 -3.08048 -0.307968 1.92284 -0.026212 48.3489 0.84183 -26.3737 -19.4041 -4.40863 8.14391 -31.3085 -3.41285 
